<?xml version="1.0" standalone="no"?>
<!DOCTYPE svg PUBLIC "-//W3C//DTD SVG 20010904//EN"
 "http://www.w3.org/TR/2001/REC-SVG-20010904/DTD/svg10.dtd">
<svg version="1.0" xmlns="http://www.w3.org/2000/svg"
 width="256.000000pt" height="256.000000pt" viewBox="0 0 256.000000 256.000000"
 preserveAspectRatio="xMidYMid meet">
<metadata>
Created by potrace 1.10, written by Peter Selinger 2001-2011
</metadata>
<g transform="translate(0.000000,256.000000) scale(0.100000,-0.100000)"
fill="#000000" stroke="none">
<path d="M462 2152 l5 -123 -65 7 -65 7 6 -123 6 -122 -122 4 -122 4 0 -359 0
-359 63 5 64 5 -4 -61 -3 -61 62 3 61 2 -5 -121 -6 -122 177 4 178 3 2 -52 1
-53 -117 0 -117 0 0 -180 0 -180 186 0 c156 0 184 2 180 14 -3 8 -7 61 -8 117
l-2 102 177 -2 178 -3 -3 119 -3 118 112 1 112 1 0 -119 0 -120 176 4 175 3
-2 -120 c-1 -66 1 -119 4 -117 4 1 85 2 180 2 l172 0 0 180 0 180 -117 0 -118
0 0 53 0 54 179 -5 180 -5 -5 122 -6 121 61 0 61 0 0 59 0 59 63 -5 62 -5 -2
358 -2 358 -121 -3 -120 -3 3 122 3 122 -64 -7 -64 -7 4 124 4 123 -178 0
-178 0 0 -63 0 -64 -175 4 -175 3 0 -120 0 -120 -112 1 -111 2 2 118 2 119
-179 -3 -180 -4 5 64 5 63 -182 0 -182 0 4 -123z m316 43 c2 -16 11 -40 20
-52 16 -21 25 -23 142 -24 69 -1 140 -4 158 -6 l32 -5 0 -93 c0 -89 1 -95 26
-114 23 -18 41 -21 123 -21 135 1 142 7 149 133 6 112 2 109 136 107 200 -3
211 1 215 93 1 15 14 17 136 17 74 0 136 -3 136 -7 1 -5 2 -48 4 -97 2 -79 5
-92 25 -108 12 -10 32 -18 44 -18 42 0 49 -13 47 -97 -1 -67 2 -84 20 -106 20
-26 25 -27 115 -27 89 0 94 -1 99 -22 3 -13 4 -153 3 -313 l-3 -289 -46 -13
c-47 -14 -62 -33 -71 -88 -2 -14 -15 -22 -45 -28 -23 -4 -47 -15 -55 -24 -7
-9 -15 -53 -18 -107 l-5 -91 -148 -5 c-147 -5 -149 -5 -172 -32 -19 -22 -23
-37 -21 -73 4 -69 20 -79 129 -85 l92 -5 3 -131 c2 -116 1 -132 -14 -138 -25
-10 -38 8 -25 32 18 34 14 117 -8 143 -16 21 -28 24 -81 24 -53 0 -65 -3 -81
-24 -22 -26 -26 -109 -8 -143 14 -26 -1 -42 -30 -33 -19 6 -21 14 -21 90 0 73
-3 87 -23 111 -23 26 -24 27 -163 28 -76 0 -145 5 -151 9 -9 5 -13 35 -13 87
0 67 -3 83 -22 105 -27 30 -94 42 -182 31 -83 -11 -96 -29 -96 -132 0 -53 -4
-85 -12 -91 -7 -5 -75 -10 -151 -10 -130 -1 -140 -2 -163 -24 -22 -20 -24 -31
-24 -106 0 -79 -1 -84 -25 -95 -32 -14 -41 -5 -27 27 7 14 12 50 12 79 0 72
-21 91 -102 91 -51 0 -63 -4 -80 -25 -16 -20 -19 -35 -15 -80 3 -30 6 -64 8
-74 4 -21 -10 -30 -27 -18 -16 10 -25 247 -11 261 6 6 47 11 92 11 110 1 140
28 125 113 -13 68 -23 72 -182 73 -119 2 -144 4 -154 18 -6 9 -12 51 -13 94
-1 87 -15 109 -72 121 -28 6 -35 13 -45 46 -11 41 -33 59 -86 70 l-28 5 0 309
c0 272 2 310 16 315 9 3 53 6 100 6 78 0 85 2 100 25 12 18 16 46 15 98 0 39
3 78 7 84 7 10 27 18 63 22 3 1 15 10 27 21 19 18 22 31 22 100 0 118 -9 111
144 108 l131 -3 3 -30z m-68 -1770 l0 -75 -70 0 -70 0 0 75 0 75 70 0 70 0 0
-75z m1283 0 l0 -70 -71 -3 -72 -3 0 76 0 76 72 -3 71 -3 0 -70z"/>
<path d="M562 2167 c-17 -18 -22 -36 -22 -81 0 -76 21 -95 102 -96 51 0 60 3
74 25 11 17 17 46 17 82 0 73 -22 93 -97 93 -42 0 -57 -5 -74 -23z m148 -77
l0 -71 -72 3 -72 3 2 65 c0 36 1 66 2 68 0 1 32 2 70 2 l70 0 0 -70z"/>
<path d="M1853 2171 c-20 -16 -23 -29 -23 -85 0 -81 16 -96 102 -96 73 0 88
18 88 106 0 55 -3 64 -25 78 -34 22 -114 21 -142 -3z m147 -81 l0 -70 -75 0
-75 0 0 70 0 70 75 0 75 0 0 -70z"/>
<path d="M914 2045 c-22 -22 -24 -32 -24 -120 l0 -95 -38 0 c-48 0 -72 -24
-72 -72 0 -39 -12 -48 -60 -48 -41 0 -53 -19 -59 -92 -1 -14 -10 -18 -39 -18
-67 0 -77 -21 -79 -164 0 -66 -2 -136 -2 -153 l-1 -33 -75 0 -75 0 0 213 c-1
255 2 249 -96 248 -44 0 -72 -5 -82 -14 -11 -12 -13 -60 -13 -246 0 -144 4
-239 11 -251 7 -13 21 -20 40 -20 47 0 60 -9 60 -45 0 -62 22 -74 133 -76 l97
-2 1 -26 c1 -14 2 -58 4 -98 3 -96 11 -103 118 -103 47 0 92 -3 101 -6 13 -5
16 -24 16 -104 0 -130 0 -130 151 -130 155 0 159 3 159 140 l0 98 178 1 c97 1
183 -3 191 -8 11 -7 14 -30 12 -93 -1 -73 1 -88 19 -111 21 -27 23 -27 140
-27 116 0 119 1 139 26 18 23 21 41 21 115 0 64 4 89 13 90 6 1 49 3 95 5 108
4 113 9 118 125 2 51 7 95 10 100 3 5 47 9 98 9 107 0 122 9 128 75 3 38 4 39
43 43 72 6 74 13 73 265 -1 272 1 267 -97 267 -103 0 -101 6 -101 -248 l0
-212 -75 0 c-65 0 -75 2 -76 18 0 9 0 74 1 145 1 159 -10 187 -77 187 -43 0
-43 0 -43 38 -1 47 -20 72 -56 72 -41 0 -56 13 -58 48 -2 37 -31 72 -62 72
-50 0 -54 7 -54 96 0 89 -12 130 -40 137 -32 8 -119 0 -135 -13 -11 -9 -15
-33 -15 -97 0 -130 12 -123 -205 -123 l-185 0 0 98 c0 121 -10 134 -97 138
-47 2 -59 -1 -79 -21z m145 -121 l-1 -116 221 -1 221 -2 0 118 0 118 73 -3
c44 -2 71 -7 70 -14 -1 -6 -3 -57 -4 -115 l-2 -104 63 4 62 3 -4 -63 -3 -63
58 3 57 2 0 -60 0 -61 60 0 60 0 0 -175 0 -175 105 0 105 0 0 235 0 235 70 0
69 0 3 -245 3 -245 -63 0 -63 0 2 -57 3 -57 -118 0 -118 -1 1 -118 2 -118
-115 3 -116 3 0 -120 0 -120 -130 0 -130 0 0 120 0 120 -222 -2 -221 -2 2
-115 2 -116 -131 0 -131 0 3 117 3 116 -118 -2 -119 -3 3 119 2 118 -118 1
-119 0 3 57 2 57 -59 0 -59 0 2 243 3 242 67 0 67 0 -1 -233 -2 -233 107 3
107 3 -2 173 -2 172 60 0 61 0 0 61 0 60 58 -2 57 -3 0 60 0 59 60 0 60 0 -2
118 -2 117 70 0 70 0 -2 -116z"/>
<path d="M827 1273 l3 -168 105 -3 105 -3 0 171 0 170 -107 0 -108 0 2 -167z
m178 -3 l0 -135 -45 -2 c-25 -1 -60 0 -77 3 l-33 5 0 129 c0 147 -7 137 100
136 l55 -1 0 -135z"/>
<path d="M1520 1270 l0 -170 110 0 110 0 0 170 0 170 -110 0 -110 0 0 -170z
m159 134 l31 -6 0 -122 c0 -66 -4 -126 -8 -133 -4 -7 -34 -10 -77 -10 l-70 2
-3 132 c-3 130 -2 132 20 136 38 7 74 7 107 1z"/>
<path d="M441 1933 c-11 -11 -15 -47 -16 -131 -1 -147 8 -162 94 -162 66 0 89
16 94 66 5 44 14 54 51 54 19 0 40 8 49 18 22 24 25 120 6 150 -13 21 -21 22
-139 22 -102 -1 -128 -4 -139 -17z m267 -77 l3 -66 -61 0 -60 0 0 -60 0 -60
-70 0 -70 0 0 123 c0 68 2 126 4 128 2 2 60 3 128 3 l123 -2 3 -66z"/>
<path d="M1847 1932 c-12 -13 -17 -37 -17 -80 0 -52 3 -63 22 -76 12 -9 37
-16 55 -16 34 0 33 1 38 -62 2 -38 35 -58 95 -58 46 0 60 4 78 23 20 21 22 34
22 135 0 152 0 152 -158 152 -103 0 -121 -3 -135 -18z m261 -136 l3 -126 -71
0 -70 0 7 60 6 60 -67 0 -66 0 0 64 c0 35 4 66 10 68 5 2 63 2 127 1 l118 -2
3 -125z"/>
</g>
</svg>
